<svg 
 xmlns="http://www.w3.org/2000/svg"
 xmlns:xlink="http://www.w3.org/1999/xlink"
 width="13px" height="13px">
<path fill-rule="evenodd"  fill="#ff4865"
 d="M11.094,12.499 L1.906,12.499 C1.131,12.499 0.500,11.868 0.500,11.093 L0.500,7.835 L1.437,7.835 L1.437,11.093 C1.437,11.351 1.648,11.562 1.906,11.562 L11.094,11.562 C11.352,11.562 11.562,11.351 11.562,11.093 L11.562,7.835 L12.500,7.835 L12.500,11.093 C12.500,11.868 11.869,12.499 11.094,12.499 ZM3.587,6.687 L4.250,6.024 L6.031,7.805 L6.031,0.499 L6.969,0.499 L6.969,7.805 L8.750,6.024 L9.413,6.687 L6.500,9.599 L3.587,6.687 Z"/>
</svg>