<svg 
 xmlns="http://www.w3.org/2000/svg"
 xmlns:xlink="http://www.w3.org/1999/xlink"
 width="35px" height="35px">
<path fill-rule="evenodd"  fill="#ff4865"
 d="M19.660,12.585 C18.969,15.165 17.314,17.321 15.000,18.656 C13.459,19.545 11.749,20.000 10.016,20.000 C9.147,20.000 8.273,19.886 7.411,19.655 C4.831,18.963 2.675,17.309 1.339,14.996 C0.003,12.683 -0.352,9.989 0.340,7.409 C1.031,4.830 2.686,2.674 4.999,1.338 C7.313,0.003 10.008,-0.352 12.588,0.339 C15.169,1.031 17.325,2.685 18.661,4.998 C19.997,7.311 20.352,10.005 19.660,12.585 ZM17.759,5.519 C16.562,3.446 14.630,1.964 12.319,1.345 C11.547,1.138 10.764,1.036 9.985,1.036 C8.433,1.036 6.901,1.443 5.520,2.240 C3.448,3.436 1.965,5.368 1.346,7.679 C0.726,9.990 1.044,12.404 2.241,14.476 C3.437,16.548 5.369,18.030 7.681,18.649 C9.993,19.268 12.407,18.950 14.480,17.754 C16.552,16.558 18.035,14.626 18.654,12.316 C19.273,10.004 18.956,7.590 17.759,5.519 ZM15.736,6.087 C15.581,6.087 15.427,6.017 15.324,5.885 C14.251,4.499 12.638,3.568 10.899,3.331 C10.614,3.292 10.414,3.029 10.453,2.744 C10.492,2.459 10.755,2.260 11.040,2.299 C13.047,2.573 14.909,3.648 16.148,5.247 C16.324,5.475 16.282,5.802 16.055,5.978 C15.960,6.051 15.848,6.087 15.736,6.087 ZM15.343,9.997 C15.343,10.391 15.140,10.744 14.799,10.941 L8.368,14.652 C8.198,14.751 8.010,14.800 7.823,14.800 C7.636,14.800 7.449,14.751 7.278,14.652 C6.937,14.455 6.733,14.103 6.733,13.709 L6.733,6.286 C6.733,5.892 6.937,5.539 7.278,5.342 C7.620,5.145 8.027,5.145 8.368,5.342 L14.798,9.054 C15.140,9.250 15.343,9.603 15.343,9.997 ZM14.278,9.955 L7.847,6.244 C7.843,6.241 7.835,6.236 7.824,6.236 C7.817,6.236 7.809,6.238 7.799,6.244 C7.775,6.258 7.775,6.277 7.775,6.286 L7.775,13.709 C7.775,13.718 7.775,13.737 7.799,13.751 C7.823,13.764 7.840,13.755 7.847,13.751 L14.278,10.039 C14.285,10.034 14.302,10.025 14.302,9.997 C14.302,9.969 14.285,9.960 14.278,9.955 Z"/>
</svg>