<?xml version="1.0" standalone="no"?>
<!DOCTYPE svg PUBLIC "-//W3C//DTD SVG 1.1//EN" "http://www.w3.org/Graphics/SVG/1.1/DTD/svg11.dtd" >
<svg xmlns="http://www.w3.org/2000/svg">
<metadata>Generated by IcoMoon</metadata>
<defs>
<font id="icomoon" horiz-adv-x="512">
<font-face units-per-em="512" ascent="480" descent="-32" />
<missing-glyph horiz-adv-x="512" />
<glyph unicode="&#x20;" d="" horiz-adv-x="256" />
<glyph unicode="&#xe600;" d="M0 366.222h113.778v113.778h-113.778v-113.778zM199.111 480v-113.778h426.666v113.778h-426.666zM0 167.111h113.778v113.778h-113.778v-113.778zM199.111 167.111h426.666v113.778h-426.666v-113.778zM0-32h113.778v113.778h-113.778v-113.778zM199.111-32h426.666v113.778h-426.666v-113.778z" horiz-adv-x="626" />
<glyph unicode="&#xe601;" d="M381.156 123.497l49.303-83.437c13.274-22.755 5.689-53.096-17.067-66.37s-53.096-5.689-66.37 17.067l-47.407 79.644c-24.652-11.378-53.096-17.067-83.437-17.067-119.466 3.793-216.178 98.608-216.178 214.281 0 117.57 96.711 212.385 214.281 212.385s214.281-94.815 214.281-212.385c0-53.096-20.86-102.4-53.096-138.429 1.897-1.897 3.793-3.793 5.689-5.689zM214.281 394.666c-72.060 0-128.948-56.889-128.948-127.052s56.889-127.052 128.948-127.052 128.948 56.889 128.948 127.052c0 70.163-56.889 127.052-128.948 127.052z" horiz-adv-x="433" />
<glyph unicode="&#xe602;" d="M512 480l-28.445-28.445-48.356-42.666c0 0-71.111 65.422-170.666 65.422-142.222 0-258.844-110.933-258.844-250.311 0 0-17.067 0 22.756 0h56.889c0 0 34.133 173.511 179.2 173.511 91.022 0 116.622-42.666 119.466-39.822l-42.666-48.356c-28.445-28.444-28.445-28.444-28.445-28.444h199.111v199.111zM426.666 224c0 0-8.534-164.978-173.511-167.822-91.022 0-116.622 42.666-119.466 39.822l36.978 42.666 28.445 28.445h-170.667c-22.756 2.844-28.445 0-28.445 0v-199.111l28.445 28.445 54.044 45.511c0 0 71.111-65.422 170.667-65.422 139.378 0 256 110.933 256 250.311 0 0-14.222-2.845-54.045-2.845h-28.445z" />
<glyph unicode="&#xe603;" d="M216.949 69.243c0 0 2.893 2.892 8.678 5.786-2.893 0-5.786 0-8.678-5.786 0 2.892 0 2.892 0 0zM393.401 300.655h60.746v-60.746c0 0 5.786-20.248 26.034-2.893l107.028 101.243c0 0 20.249 17.356 2.893 23.141l-118.599 112.813c0 0-17.356 14.464-17.356-2.892v-69.423h-95.457c0 0-37.604-11.57-52.068-40.497l-141.74-190.916c0 0-23.141-28.926-37.605-28.926h-127.277v-86.779h173.56c0 0 26.034 8.678 43.39 20.248 23.141 28.926 141.74 199.593 141.74 199.593s14.464 26.034 34.712 26.034zM231.412 83.706c0 0-2.893-2.892-8.678-5.786 2.893 0 5.786 2.892 8.678 5.786zM161.988 289.084l34.712-28.926 37.605 63.638-37.605 49.175c-17.356 14.463-52.068 28.926-52.068 28.926h-144.633v-86.779h115.706c17.356 0 46.283-26.034 46.283-26.034zM590.101 101.062l-107.028 95.457c-31.819 23.141-26.034-2.892-26.034-2.892v-52.068h-63.639c-20.248 0-34.712 20.248-34.712 20.248l-14.464 28.926-60.746-78.101 37.604-37.604c11.57-20.248 40.497-34.712 40.497-34.712h92.565v-63.639c0-26.034 26.034 5.786 26.034 5.786l109.921 92.565c17.356 14.464 0 26.034 0 26.034z" horiz-adv-x="599" />
<glyph unicode="&#xe604;" d="M504.788-24.788c-3.606-25.24 0 36.057 0 36.057 54.085 0 144.226 108.169 144.226 216.338 0 54.085-90.141 216.338-144.226 216.338v36.056c79.324 0 180.281-169.465 180.281-252.394s-79.324-252.395-180.281-252.395zM396.62 83.38v36.057c54.084 0 93.746 54.084 93.746 108.169s-39.662 108.169-93.746 108.169v36.057c79.324 0 140.62-61.296 140.62-144.226s-61.296-144.225-140.62-144.225zM50.479 126.648c-28.845 0-50.479 14.423-50.479 32.45v137.014c0 18.028 21.634 32.45 50.479 32.45h97.352l176.676 151.437v-504.788l-176.676 151.437h-97.352z" horiz-adv-x="685" />
<glyph unicode="&#xe605;" d="M236.089 371.911l-45.511 36.978c-45.511-48.356-73.956-113.778-73.956-184.889s28.445-139.378 76.8-184.889l45.511 36.978c-39.822 36.978-65.422 88.178-65.422 147.911 0 56.889 22.756 110.933 62.578 147.911zM292.978 224c0 28.445 11.378 51.2 31.289 68.267l-36.978 39.822c-31.289-25.6-51.2-65.422-51.2-108.089s19.911-82.489 48.356-108.089l45.511 34.133c-22.755 17.067-36.978 42.666-36.978 73.956zM142.222 443.022l-45.511 36.978c-59.733-68.267-96.711-156.445-96.711-256s36.978-187.733 96.711-256l45.511 36.978c-51.2 56.889-85.334 133.689-85.334 219.022s34.133 162.134 85.334 219.022zM728.178 480l-45.511-36.978c54.044-56.889 85.333-133.689 85.333-219.022s-31.289-162.134-85.333-219.022l45.511-36.978c59.734 68.267 96.711 156.445 96.711 256s-36.978 187.733-96.711 256zM634.311 408.889l-45.511-36.978c36.978-36.978 59.734-91.022 59.734-147.911 0-59.733-22.755-110.933-62.578-150.755l45.511-36.978c48.356 48.356 76.8 113.778 76.8 184.889 0 73.955-28.444 139.378-73.956 187.733zM537.6 334.933l-36.978-39.822c19.911-19.911 31.289-42.666 31.289-71.111 0-31.289-14.222-56.889-36.978-73.956l45.511-34.134c28.444 25.6 48.356 65.422 48.356 108.089-2.845 42.666-19.911 82.489-51.2 110.933zM418.134 275.2c-2.844 0-5.689 0-8.534 0s-5.689 0-8.534 0c-28.445 0-51.2-22.756-51.2-51.2s22.755-51.2 51.2-51.2c2.844 0 5.689 0 8.534 0s5.689 0 8.534 0c28.445 0 51.2 22.755 51.2 51.2s-22.755 51.2-51.2 51.2z" horiz-adv-x="825" />
<glyph unicode="&#xe606;" d="M512-32h-460.8c-30.72 0-51.2 20.48-51.2 51.2v204.8h204.8v-51.2h153.6v51.2h204.8v-204.8c0-30.72-20.48-51.2-51.2-51.2zM0 326.4c0 30.72 20.48 51.2 51.2 51.2h102.4v102.4h256v-102.4h102.4c30.72 0 51.2-20.48 51.2-51.2v-51.2h-563.2v51.2zM204.8 377.6h153.6v51.2h-153.6v-51.2z" horiz-adv-x="563" />
<glyph unicode="&#xe607;" d="M425.354-32h-338.707c-47.261 0-86.646 35.446-86.646 78.769v315.077c0 43.323 35.446 74.831 78.769 78.769v-118.154h118.154v118.154h118.154v-118.154h118.154v118.154c43.323-3.938 78.769-35.446 78.769-78.769v-315.077c0-43.323-39.385-78.769-86.646-78.769zM472.615 283.077h-433.231v-236.308h433.231v236.308zM118.154 204.308h-39.385v39.385h39.385v-39.385zM118.154 125.538h-39.385v39.385h39.385v-39.385zM196.923 204.308h-39.385v39.385h39.385v-39.385zM196.923 125.538h-39.385v39.385h39.385v-39.385zM275.692 204.308h-39.385v39.385h39.385v-39.385zM275.692 125.538h-39.385v39.385h39.385v-39.385zM354.462 204.308h-39.385v39.385h39.385v-39.385zM354.462 125.538h-39.385v39.385h39.385v-39.385zM433.231 204.308h-39.385v39.385h39.385v-39.385zM374.154 361.846c-11.815 0-19.692 7.877-19.692 19.692v78.769c0 11.815 7.877 19.692 19.692 19.692s19.692-7.877 19.692-19.692v-78.769c0-11.815-7.877-19.692-19.692-19.692zM137.846 361.846c-11.816 0-19.692 7.877-19.692 19.692v78.769c0 11.815 7.877 19.692 19.692 19.692s19.692-7.877 19.692-19.692v-78.769c0-11.815-7.877-19.692-19.692-19.692z" />
<glyph unicode="&#xe608;" d="M512 269.177v-86.051h-94.656c-4.303-12.908-8.605-30.118-17.21-43.025l64.538-64.538-60.236-60.236-64.538 64.538c-12.908-8.605-25.815-12.908-43.025-17.21v-94.656h-86.050v94.656c-17.21 4.303-30.118 8.605-43.025 17.21l-68.841-68.841-60.236 64.538 64.538 64.538c-8.605 12.908-12.907 25.815-17.21 43.025h-86.050v86.050h86.050c4.302 17.21 8.605 30.118 17.21 43.025l-60.236 60.236 60.236 60.236 60.236-60.236c12.907 8.605 30.118 12.907 43.025 17.21v90.353h86.050v-90.353c17.21-4.303 30.118-8.605 43.025-17.21l60.236 60.236 60.236-60.236-55.933-60.236c8.605-12.908 12.908-30.118 17.21-43.025h94.656zM249.546 307.899c-43.025 0-81.748-34.42-81.748-81.748s38.722-81.748 81.748-81.748 86.050 34.42 86.050 81.748c0 47.327-38.722 81.748-86.050 81.748z" />
<glyph unicode="&#xe609;" d="M768 428.8v-409.6l-204.8 204.8 204.8 204.8zM0 480h768l-368.64-322.56-399.36 322.56zM225.28 224l-225.28-204.8v409.6l225.28-204.8zM409.6 70.4l117.76 112.64 240.64-215.040h-768l256 215.040 153.6-112.64z" horiz-adv-x="768" />
<glyph unicode="&#xe60a;" d="M512 107.637h-46.546v-139.637h-46.546v139.637h-46.546v93.091h46.546v279.272h46.546v-279.272h46.546v-93.091zM279.272-32h-46.546v325.818h-46.546v93.091h46.546v93.091h46.546v-93.091h46.546v-93.091h-46.546v-325.818zM93.091-32h-46.545v139.637h-46.545v93.091h46.545v279.272h46.545v-279.272h46.545v-93.091h-46.546v-139.637z" />
<glyph unicode="&#xe60b;" d="M271.858-32c0 0-271.858 122.337-271.858 362.478 0 90.62 90.62 181.239 181.239 135.929s90.619-135.929 90.619-135.929 0 90.62 90.62 135.929c90.62 45.309 181.239-45.31 181.239-135.929 0-240.142-271.858-362.478-271.858-362.478z" horiz-adv-x="544" />
<glyph unicode="&#xe60c;" d="M232.727 265.891v-251.345h-55.855c-13.964-27.928-46.546-46.546-83.782-46.546-51.2 0-93.091 41.891-93.091 88.437 0 51.2 41.891 93.091 93.091 93.091 37.236 0 65.164-18.618 83.782-46.546v377.018h55.855v-4.654c0 0 88.436-200.146 162.909-209.455 65.163-13.963-121.018-4.654-162.909 0z" horiz-adv-x="410" />
<glyph unicode="&#xe60d;" d="M232.727-32c-130.327 0-232.727 102.4-232.727 232.727 0 93.091 55.855 176.873 139.637 214.109v-111.709c-27.927-23.272-46.546-60.509-46.546-102.4 0-79.127 60.509-139.637 139.637-139.637s139.637 60.509 139.637 139.637c0 41.891-18.618 79.127-46.546 102.4v111.709c83.782-37.237 139.637-121.018 139.637-214.109 0-130.327-102.4-232.727-232.727-232.727zM186.182 480h93.091v-232.727h-93.091v232.727z" horiz-adv-x="466" />
<glyph unicode="&#xe60e;" d="M256 480l-73.143-182.857h-182.857l146.286-109.715-73.143-219.428 182.857 146.286 182.857-146.286-73.143 219.428 146.286 109.714h-182.857l-73.143 182.857z" />
<glyph unicode="&#xe60f;" d="M42.666-32h-42.666v512h42.666v-469.334h426.666v-42.666h-426.666zM341.334 394.666h85.334v-341.334h-85.334v341.334zM213.333 224h85.333v-170.667h-85.334v170.667zM85.334 309.333h85.334v-256h-85.334v256z" horiz-adv-x="470" />
<glyph unicode="&#xe610;" d="M495.484-32h-454.193c-24.774 0-41.291 16.516-41.291 41.291v289.033c0 24.774 16.516 41.291 41.291 41.291h132.129l-94.968 94.967 28.903 28.903 115.613-115.613-8.258-8.258h20.645l-12.387 16.516 123.871 123.871 28.903-28.903-107.355-111.484h227.097c24.774 0 41.29-16.516 41.29-41.291v-289.033c0-20.645-16.516-41.29-41.291-41.29zM371.613 257.033c0 24.774-16.516 41.29-41.291 41.29h-247.742c-24.774 0-41.291-16.516-41.291-41.29v-206.452c0-24.774 16.516-41.291 41.291-41.291h247.742c24.774 0 41.291 16.516 41.291 41.291v206.452zM474.839 298.322h-41.291c-12.387 0-20.645-8.258-20.645-20.645s8.258-20.645 20.645-20.645h41.291c12.387 0 20.645 8.258 20.645 20.645s-8.258 20.645-20.645 20.645zM474.839 215.742h-41.291c-12.387 0-20.645-8.258-20.645-20.645s8.258-20.645 20.645-20.645h41.291c12.387 0 20.645 8.258 20.645 20.645s-8.258 20.645-20.645 20.645zM474.839 133.161h-41.291c-12.387 0-20.645-8.258-20.645-20.645s8.258-20.645 20.645-20.645h41.291c12.387 0 20.645 8.258 20.645 20.645s-8.258 20.645-20.645 20.645z" horiz-adv-x="537" />
<glyph unicode="&#xe611;" d="M350.316 241.965c-4.491-8.982-13.474-8.982-17.965-17.965-8.983-8.983-4.491-22.456-8.983-35.93s-13.474-13.474-13.474-26.947c4.491 0 8.983 0 13.474 0 4.491-8.983 13.474-31.438 22.456-40.421 8.983 0 17.965-4.491 22.456-4.491 35.93-17.965 67.368-31.438 94.316-40.421s22.456-13.474 31.438-40.421c0-17.965 0-44.913 0-67.368h-494.035c0 22.456 0 49.404 0 67.368 8.982 22.456 4.491 26.947 31.439 40.421s62.877 26.947 89.825 35.93c8.982 0 17.965 4.491 22.456 4.491 8.982 4.491 17.965 26.947 22.456 40.421l13.474 4.491c-4.491 13.474-13.474 13.474-13.474 22.456 0 13.474-4.491 31.438-4.491 44.912 0 0-8.982 0-13.474 4.491-13.474 8.982-13.474 44.912-17.965 62.877 0 8.982 8.982 13.474 4.491 26.947-17.965 76.351 8.982 130.245 44.912 139.228 26.947 8.983 76.351 31.438 121.263 0l13.474-4.491 17.965-4.491c8.983-4.491 13.474-22.456 13.474-22.456 4.491-17.965 4.491-35.93 4.491-53.895 0-8.982-4.491-40.421-4.491-53.894 0-8.982 4.491-8.982 8.983-17.965 4.491-13.474 4.491-31.439 4.491-40.421-4.491-8.982-4.491-17.965-8.983-22.456z" horiz-adv-x="494" />
<glyph unicode="&#xe612;" d="M0-32c0 0 139.061 50.568 240.197 94.815l-145.382 145.382c-44.247-101.136-94.815-240.197-94.815-240.197zM448.79 416.79c-50.568 50.568-101.136 82.173-145.382 31.605l-12.642-12.642 176.988-176.988 12.642 12.642c50.568 50.568 18.963 101.136-31.605 145.382zM145.382 296.692c-6.321-12.642-18.963-31.605-37.926-63.21l158.024-158.024c31.605 18.963 50.568 31.605 63.21 44.247l120.099 120.099-183.308 176.988-120.099-120.099z" />
<glyph unicode="&#xe613;" d="M287.935-32h-95.935v256h-64v88.225l64 0.029-0.104 51.976c0 71.976 19.517 115.77 104.299 115.77h70.588v-88.242h-44.115c-33.016 0-34.603-12.328-34.603-35.342l-0.131-44.162h79.345l-9.352-88.225-69.927-0.029-0.065-256z" />
<glyph unicode="&#xe614;" d="M512 382.791c-18.838-8.354-39.082-14.001-60.33-16.54 21.686 13 38.343 33.585 46.186 58.115-20.298-12.039-42.778-20.78-66.705-25.49-19.16 20.415-46.461 33.17-76.673 33.17-58.011 0-105.044-47.029-105.044-105.039 0-8.233 0.929-16.25 2.72-23.939-87.3 4.382-164.701 46.2-216.509 109.753-9.042-15.514-14.223-33.558-14.223-52.809 0-36.444 18.544-68.596 46.73-87.433-17.219 0.546-33.416 5.271-47.577 13.139-0.010-0.438-0.010-0.878-0.010-1.321 0-50.894 36.209-93.348 84.261-103-8.813-2.4-18.094-3.686-27.674-3.686-6.769 0-13.349 0.66-19.764 1.886 13.368-41.73 52.16-72.103 98.126-72.948-35.95-28.175-81.243-44.967-130.458-44.967-8.479 0-16.84 0.497-25.058 1.47 46.486-29.805 101.701-47.197 161.021-47.197 193.211 0 298.868 160.062 298.868 298.872 0 4.554-0.103 9.084-0.305 13.59 20.528 14.81 38.336 33.31 52.418 54.374z" />
<glyph unicode="&#xe615;" d="M273.067 113.067l98.134 4.267v-85.334c0-12.8 0-12.8-21.334-21.334-25.6-8.534-59.733-8.534-85.334-8.534-98.133 8.534-170.667 89.6-187.733 187.733-17.067 93.866 25.6 183.466 98.133 217.6 34.133 17.066 76.8 25.6 123.734 12.8 29.866-8.534 55.466-25.6 76.8-51.2l-17.067-29.867 29.866 8.534 46.933 46.934c-76.8 68.267-209.066 76.8-298.666 29.867-76.8-38.4-132.267-119.466-136.534-209.067-4.266-93.866 51.2-170.667 102.4-204.8 89.6-59.733 243.2-46.934 332.8 0v106.666l21.334 25.6h-132.267l-51.2-29.866zM507.733 428.8v51.2h-25.6v-51.2h-46.933v-25.6h46.933v-51.2h25.6v51.2h46.934v25.6h-46.933z" horiz-adv-x="555" />
<glyph unicode="&#xe616;" d="M256-32c-141.553 0-256 114.447-256 256s114.447 256 256 256 256-114.447 256-256-114.447-256-256-256zM180.706 359.529v-271.059l180.706 120.471-180.706 150.588z" />
<glyph unicode="&#xe617;" d="M358.4-32h-307.2c-23.040 0-51.2 28.16-51.2 51.2v358.4c0 23.040 28.16 51.2 51.2 51.2h76.8v-51.2h153.6v51.2h76.8c23.040 0 51.2-28.16 51.2-51.2v-358.4c0-23.040-28.16-51.2-51.2-51.2zM76.8 44.8h256v51.2h-256v-51.2zM332.8 300.8h-256v-51.2h256v51.2zM332.8 198.4h-256v-51.2h256v51.2zM128 480h153.6v-51.2h-153.6v51.2z" horiz-adv-x="410" />
<glyph unicode="&#xe618;" d="M256 480l85.334-162.134 170.666-34.133-119.466-133.689 22.755-182.044-159.289 76.8-159.289-76.8 22.755 182.044-119.466 133.689 170.667 34.134 85.334 162.134z" />
<glyph unicode="&#xe619;" d="M94.316-32h-94.316v215.579h80.842v-134.737h350.316v134.737h80.842v-215.579h-417.684zM258.695 151.242l-150.905 167.074h80.842v161.684h134.737v-161.684h80.842l-145.516-167.074z" />
<glyph unicode="&#xf017;" d="M0 219.429q0 59.714 29.428 110.143t79.857 79.857 110.143 29.428 110.143-29.428 79.857-79.857 29.428-110.143-29.428-110.143-79.857-79.857-110.143-29.428-110.143 29.428-79.857 79.857-29.428 110.143zM64 219.429q0-42.286 20.857-78t56.571-56.572 78-20.857 78 20.857 56.572 56.572 20.857 78-20.857 78-56.572 56.572-78 20.857-78-20.857-56.572-56.572-20.857-78zM146.286 192v18.286q0 4 2.571 6.572t6.571 2.571h64v100.572q0 4 2.571 6.572t6.571 2.571h18.286q4 0 6.572-2.571t2.571-6.572v-128q0-4-2.571-6.572t-6.572-2.572h-91.428q-4 0-6.572 2.572t-2.571 6.572z" />
<glyph unicode="&#xf0e1;" d="M0 384.286q0 21.143 14.714 35t38.428 13.857 38-13.857 14.572-35q0.285-20.857-14.428-34.857t-38.715-14h-0.572q-23.428 0-37.715 14t-14.286 34.857zM5.428 13.714v283.143h94.285v-283.143h-94.285zM151.714 13.714q0.571 114 0.571 184.857t-0.286 84.572l-0.286 13.714h94v-41.143h-0.571q5.714 9.143 11.714 16t16.143 14.857 24.857 12.428 32.714 4.428q48.857 0 78.572-32.428t29.714-95v-162.286h-94v151.429q0 30-11.572 47t-36.143 17q-18 0-30.143-9.857t-18.143-24.428q-3.143-8.572-3.143-23.143v-158h-94z" />
</font>
</defs>
</svg>
